w1b1r50.ufo
<glyph name="_5" format="2">
  <advance width="1"/>
  <unicode hex="0105"/>
  
  <outline>
    <component base="cap" xOffset="0" yOffset="0.000" />
    <component base="cap" xOffset="0" yOffset="49.000" />
    <contour>
      <point x="0.000" y="0.500" type="line"/>
      <point x="0.000" y="49.500" type="line"/>
      <point x="1.000" y="49.500" type="line"/>
      <point x="1.000" y="0.500" type="line"/>
    </contour>
  </outline>
</glyph>
<glyph name="_13" format="2">
  <advance width="1"/>
  <unicode hex="010D"/>
  
  <outline>
    <component base="cap" xOffset="0" yOffset="0.000" />
    <component base="cap" xOffset="0" yOffset="129.000" />
    <contour>
      <point x="0.000" y="0.500" type="line"/>
      <point x="0.000" y="129.500" type="line"/>
      <point x="1.000" y="129.500" type="line"/>
      <point x="1.000" y="0.500" type="line"/>
    </contour>
  </outline>
</glyph>
<glyph name="_17" format="2">
  <advance width="1"/>
  <unicode hex="0111"/>
  
  <outline>
    <component base="cap" xOffset="0" yOffset="0.000" />
    <component base="cap" xOffset="0" yOffset="169.000" />
    <contour>
      <point x="0.000" y="0.500" type="line"/>
      <point x="0.000" y="169.500" type="line"/>
      <point x="1.000" y="169.500" type="line"/>
      <point x="1.000" y="0.500" type="line"/>
    </contour>
  </outline>
</glyph>
<glyph name="_27" format="2">
  <advance width="1"/>
  <unicode hex="011B"/>
  
  <outline>
    <component base="cap" xOffset="0" yOffset="0.000" />
    <component base="cap" xOffset="0" yOffset="269.000" />
    <contour>
      <point x="0.000" y="0.500" type="line"/>
      <point x="0.000" y="269.500" type="line"/>
      <point x="1.000" y="269.500" type="line"/>
      <point x="1.000" y="0.500" type="line"/>
    </contour>
  </outline>
</glyph>
<glyph name="_31" format="2">
  <advance width="1"/>
  <unicode hex="011F"/>
  
  <outline>
    <component base="cap" xOffset="0" yOffset="0.000" />
    <component base="cap" xOffset="0" yOffset="309.000" />
    <contour>
      <point x="0.000" y="0.500" type="line"/>
      <point x="0.000" y="309.500" type="line"/>
      <point x="1.000" y="309.500" type="line"/>
      <point x="1.000" y="0.500" type="line"/>
    </contour>
  </outline>
</glyph>
<glyph name="_32" format="2">
  <advance width="1"/>
  <unicode hex="0120"/>
  <unicode hex="0071"/>
  <outline>
    <component base="cap" xOffset="0" yOffset="0.000" />
    <component base="cap" xOffset="0" yOffset="319.000" />
    <contour>
      <point x="0.000" y="0.500" type="line"/>
      <point x="0.000" y="319.500" type="line"/>
      <point x="1.000" y="319.500" type="line"/>
      <point x="1.000" y="0.500" type="line"/>
    </contour>
  </outline>
</glyph>
<glyph name="_57" format="2">
  <advance width="1"/>
  <unicode hex="0139"/>
  
  <outline>
    <component base="cap" xOffset="0" yOffset="0" />
    <component base="cap" xOffset="0" yOffset="569" />
    <contour>
      <point x="0" y="1" type="line"/>
      <point x="0" y="570" type="line"/>
      <point x="1" y="570" type="line"/>
      <point x="1" y="1" type="line"/>
    </contour>
  </outline>
</glyph>
<glyph name="_60" format="2">
  <advance width="1"/>
  <unicode hex="013C"/>
  <unicode hex="0036"/><unicode hex="0045"/>
  <outline>
    <component base="cap" xOffset="0" yOffset="0.000" />
    <component base="cap" xOffset="0" yOffset="599.000" />
    <contour>
      <point x="0.000" y="0.500" type="line"/>
      <point x="0.000" y="599.500" type="line"/>
      <point x="1.000" y="599.500" type="line"/>
      <point x="1.000" y="0.500" type="line"/>
    </contour>
  </outline>
</glyph>
<glyph name="_65" format="2">
  <advance width="1"/>
  <unicode hex="0141"/>
  
  <outline>
    <component base="cap" xOffset="0" yOffset="0.000" />
    <component base="cap" xOffset="0" yOffset="649.000" />
    <contour>
      <point x="0.000" y="0.500" type="line"/>
      <point x="0.000" y="649.500" type="line"/>
      <point x="1.000" y="649.500" type="line"/>
      <point x="1.000" y="0.500" type="line"/>
    </contour>
  </outline>
</glyph>
<glyph name="_73" format="2">
  <advance width="1"/>
  <unicode hex="0149"/>
  
  <outline>
    <component base="cap" xOffset="0" yOffset="0.000" />
    <component base="cap" xOffset="0" yOffset="729.000" />
    <contour>
      <point x="0.000" y="0.500" type="line"/>
      <point x="0.000" y="729.500" type="line"/>
      <point x="1.000" y="729.500" type="line"/>
      <point x="1.000" y="0.500" type="line"/>
    </contour>
  </outline>
</glyph>
<glyph name="_80" format="2">
  <advance width="1"/>
  <unicode hex="0150"/>
  <unicode hex="0038"/><unicode hex="004F"/>
  <outline>
    <component base="cap" xOffset="0" yOffset="0.000" />
    <component base="cap" xOffset="0" yOffset="799.000" />
    <contour>
      <point x="0.000" y="0.500" type="line"/>
      <point x="0.000" y="799.500" type="line"/>
      <point x="1.000" y="799.500" type="line"/>
      <point x="1.000" y="0.500" type="line"/>
    </contour>
  </outline>
</glyph>
<glyph name="_86" format="2">
  <advance width="1"/>
  <unicode hex="0156"/>
  <unicode hex="2587"/><unicode hex="0052"/>
  <outline>
    <component base="cap" xOffset="0" yOffset="0.000" />
    <component base="cap" xOffset="0" yOffset="859.000" />
    <contour>
      <point x="0.000" y="0.500" type="line"/>
      <point x="0.000" y="859.500" type="line"/>
      <point x="1.000" y="859.500" type="line"/>
      <point x="1.000" y="0.500" type="line"/>
    </contour>
  </outline>
</glyph>
<glyph name="_91" format="2">
  <advance width="1"/>
  <unicode hex="015B"/>
  
  <outline>
    <component base="cap" xOffset="0" yOffset="0.000" />
    <component base="cap" xOffset="0" yOffset="909.000" />
    <contour>
      <point x="0.000" y="0.500" type="line"/>
      <point x="0.000" y="909.500" type="line"/>
      <point x="1.000" y="909.500" type="line"/>
      <point x="1.000" y="0.500" type="line"/>
    </contour>
  </outline>
</glyph>
<glyph name="_107" format="2">
  <advance width="1"/>
  <unicode hex="016B"/>
  
  <outline>
    <component base="cap" xOffset="0" yOffset="0.000" />
    <component base="cap" xOffset="0" yOffset="1069.000" />
    <contour>
      <point x="0.000" y="0.500" type="line"/>
      <point x="0.000" y="1069.500" type="line"/>
      <point x="1.000" y="1069.500" type="line"/>
      <point x="1.000" y="0.500" type="line"/>
    </contour>
  </outline>
</glyph>
<glyph name="_7.center" format="2">
  <advance width="1"/>
  <unicode hex="0407"/>
  
  <outline>
    <component base="cap" xOffset="0" yOffset="465.000" />
    <component base="cap" xOffset="0" yOffset="534.000" />
    <contour>
      <point x="0.000" y="465.500" type="line"/>
      <point x="0.000" y="534.500" type="line"/>
      <point x="1.000" y="534.500" type="line"/>
      <point x="1.000" y="465.500" type="line"/>
    </contour>
  </outline>
</glyph>
<glyph name="_12.center" format="2">
  <advance width="1"/>
  <unicode hex="040C"/>
  
  <outline>
    <component base="cap" xOffset="0" yOffset="440.000" />
    <component base="cap" xOffset="0" yOffset="559.000" />
    <contour>
      <point x="0.000" y="440.500" type="line"/>
      <point x="0.000" y="559.500" type="line"/>
      <point x="1.000" y="559.500" type="line"/>
      <point x="1.000" y="440.500" type="line"/>
    </contour>
  </outline>
</glyph>
<glyph name="_16.center" format="2">
  <advance width="1"/>
  <unicode hex="0410"/>
  
  <outline>
    <component base="cap" xOffset="0" yOffset="420.000" />
    <component base="cap" xOffset="0" yOffset="579.000" />
    <contour>
      <point x="0.000" y="420.500" type="line"/>
      <point x="0.000" y="579.500" type="line"/>
      <point x="1.000" y="579.500" type="line"/>
      <point x="1.000" y="420.500" type="line"/>
    </contour>
  </outline>
</glyph>
<glyph name="_19.center" format="2">
  <advance width="1"/>
  <unicode hex="0413"/>
  
  <outline>
    <component base="cap" xOffset="0" yOffset="405" />
    <component base="cap" xOffset="0" yOffset="594" />
    <contour>
      <point x="0" y="406" type="line"/>
      <point x="0" y="595" type="line"/>
      <point x="1" y="595" type="line"/>
      <point x="1" y="406" type="line"/>
    </contour>
  </outline>
</glyph>
<glyph name="_20.center" format="2">
  <advance width="1"/>
  <unicode hex="0414"/>
  
  <outline>
    <component base="cap" xOffset="0" yOffset="400.000" />
    <component base="cap" xOffset="0" yOffset="599.000" />
    <contour>
      <point x="0.000" y="400.500" type="line"/>
      <point x="0.000" y="599.500" type="line"/>
      <point x="1.000" y="599.500" type="line"/>
      <point x="1.000" y="400.500" type="line"/>
    </contour>
  </outline>
</glyph>
<glyph name="_22.center" format="2">
  <advance width="1"/>
  <unicode hex="0416"/>
  
  <outline>
    <component base="cap" xOffset="0" yOffset="390.000" />
    <component base="cap" xOffset="0" yOffset="609.000" />
    <contour>
      <point x="0.000" y="390.500" type="line"/>
      <point x="0.000" y="609.500" type="line"/>
      <point x="1.000" y="609.500" type="line"/>
      <point x="1.000" y="390.500" type="line"/>
    </contour>
  </outline>
</glyph>
<glyph name="_24.center" format="2">
  <advance width="1"/>
  <unicode hex="0418"/>
  
  <outline>
    <component base="cap" xOffset="0" yOffset="380.000" />
    <component base="cap" xOffset="0" yOffset="619.000" />
    <contour>
      <point x="0.000" y="380.500" type="line"/>
      <point x="0.000" y="619.500" type="line"/>
      <point x="1.000" y="619.500" type="line"/>
      <point x="1.000" y="380.500" type="line"/>
    </contour>
  </outline>
</glyph>
<glyph name="_25.center" format="2">
  <advance width="1"/>
  <unicode hex="0419"/>
  
  <outline>
    <component base="cap" xOffset="0" yOffset="375" />
    <component base="cap" xOffset="0" yOffset="624" />
    <contour>
      <point x="0" y="376" type="line"/>
      <point x="0" y="625" type="line"/>
      <point x="1" y="625" type="line"/>
      <point x="1" y="376" type="line"/>
    </contour>
  </outline>
</glyph>
<glyph name="_28.center" format="2">
  <advance width="1"/>
  <unicode hex="041C"/>
  
  <outline>
    <component base="cap" xOffset="0" yOffset="360.000" />
    <component base="cap" xOffset="0" yOffset="639.000" />
    <contour>
      <point x="0.000" y="360.500" type="line"/>
      <point x="0.000" y="639.500" type="line"/>
      <point x="1.000" y="639.500" type="line"/>
      <point x="1.000" y="360.500" type="line"/>
    </contour>
  </outline>
</glyph>
<glyph name="_29.center" format="2">
  <advance width="1"/>
  <unicode hex="041D"/>
  
  <outline>
    <component base="cap" xOffset="0" yOffset="355.000" />
    <component base="cap" xOffset="0" yOffset="644.000" />
    <contour>
      <point x="0.000" y="355.500" type="line"/>
      <point x="0.000" y="644.500" type="line"/>
      <point x="1.000" y="644.500" type="line"/>
      <point x="1.000" y="355.500" type="line"/>
    </contour>
  </outline>
</glyph>
<glyph name="_30.center" format="2">
  <advance width="1"/>
  <unicode hex="041E"/>
  
  <outline>
    <component base="cap" xOffset="0" yOffset="350" />
    <component base="cap" xOffset="0" yOffset="649" />
    <contour>
      <point x="0" y="351" type="line"/>
      <point x="0" y="650" type="line"/>
      <point x="1" y="650" type="line"/>
      <point x="1" y="351" type="line"/>
    </contour>
  </outline>
</glyph>
<glyph name="_32.center" format="2">
  <advance width="1"/>
  <unicode hex="0420"/>
  
  <outline>
    <component base="cap" xOffset="0" yOffset="340.000" />
    <component base="cap" xOffset="0" yOffset="659.000" />
    <contour>
      <point x="0.000" y="340.500" type="line"/>
      <point x="0.000" y="659.500" type="line"/>
      <point x="1.000" y="659.500" type="line"/>
      <point x="1.000" y="340.500" type="line"/>
    </contour>
  </outline>
</glyph>
<glyph name="_34.center" format="2">
  <advance width="1"/>
  <unicode hex="0422"/>
  
  <outline>
    <component base="cap" xOffset="0" yOffset="330.000" />
    <component base="cap" xOffset="0" yOffset="669.000" />
    <contour>
      <point x="0.000" y="330.500" type="line"/>
      <point x="0.000" y="669.500" type="line"/>
      <point x="1.000" y="669.500" type="line"/>
      <point x="1.000" y="330.500" type="line"/>
    </contour>
  </outline>
</glyph>
<glyph name="_36.center" format="2">
  <advance width="1"/>
  <unicode hex="0424"/>
  
  <outline>
    <component base="cap" xOffset="0" yOffset="320.000" />
    <component base="cap" xOffset="0" yOffset="679.000" />
    <contour>
      <point x="0.000" y="320.500" type="line"/>
      <point x="0.000" y="679.500" type="line"/>
      <point x="1.000" y="679.500" type="line"/>
      <point x="1.000" y="320.500" type="line"/>
    </contour>
  </outline>
</glyph>
<glyph name="_38.center" format="2">
  <advance width="1"/>
  <unicode hex="0426"/>
  
  <outline>
    <component base="cap" xOffset="0" yOffset="310.000" />
    <component base="cap" xOffset="0" yOffset="689.000" />
    <contour>
      <point x="0.000" y="310.500" type="line"/>
      <point x="0.000" y="689.500" type="line"/>
      <point x="1.000" y="689.500" type="line"/>
      <point x="1.000" y="310.500" type="line"/>
    </contour>
  </outline>
</glyph>
<glyph name="_39.center" format="2">
  <advance width="1"/>
  <unicode hex="0427"/>
  
  <outline>
    <component base="cap" xOffset="0" yOffset="305" />
    <component base="cap" xOffset="0" yOffset="694" />
    <contour>
      <point x="0" y="306" type="line"/>
      <point x="0" y="695" type="line"/>
      <point x="1" y="695" type="line"/>
      <point x="1" y="306" type="line"/>
    </contour>
  </outline>
</glyph>
<glyph name="_41.center" format="2">
  <advance width="1"/>
  <unicode hex="0429"/>
  
  <outline>
    <component base="cap" xOffset="0" yOffset="295.000" />
    <component base="cap" xOffset="0" yOffset="704.000" />
    <contour>
      <point x="0.000" y="295.500" type="line"/>
      <point x="0.000" y="704.500" type="line"/>
      <point x="1.000" y="704.500" type="line"/>
      <point x="1.000" y="295.500" type="line"/>
    </contour>
  </outline>
</glyph>
<glyph name="_45.center" format="2">
  <advance width="1"/>
  <unicode hex="042D"/>
  
  <outline>
    <component base="cap" xOffset="0" yOffset="275.000" />
    <component base="cap" xOffset="0" yOffset="724.000" />
    <contour>
      <point x="0.000" y="275.500" type="line"/>
      <point x="0.000" y="724.500" type="line"/>
      <point x="1.000" y="724.500" type="line"/>
      <point x="1.000" y="275.500" type="line"/>
    </contour>
  </outline>
</glyph>
<glyph name="_48.center" format="2">
  <advance width="1"/>
  <unicode hex="0430"/>
  
  <outline>
    <component base="cap" xOffset="0" yOffset="260.000" />
    <component base="cap" xOffset="0" yOffset="739.000" />
    <contour>
      <point x="0.000" y="260.500" type="line"/>
      <point x="0.000" y="739.500" type="line"/>
      <point x="1.000" y="739.500" type="line"/>
      <point x="1.000" y="260.500" type="line"/>
    </contour>
  </outline>
</glyph>
<glyph name="_50.center" format="2">
  <advance width="1"/>
  <unicode hex="0432"/>
  
  <outline>
    <component base="cap" xOffset="0" yOffset="250.000" />
    <component base="cap" xOffset="0" yOffset="749.000" />
    <contour>
      <point x="0.000" y="250.500" type="line"/>
      <point x="0.000" y="749.500" type="line"/>
      <point x="1.000" y="749.500" type="line"/>
      <point x="1.000" y="250.500" type="line"/>
    </contour>
  </outline>
</glyph>
<glyph name="_53.center" format="2">
  <advance width="1"/>
  <unicode hex="0435"/>
  
  <outline>
    <component base="cap" xOffset="0" yOffset="235.000" />
    <component base="cap" xOffset="0" yOffset="764.000" />
    <contour>
      <point x="0.000" y="235.500" type="line"/>
      <point x="0.000" y="764.500" type="line"/>
      <point x="1.000" y="764.500" type="line"/>
      <point x="1.000" y="235.500" type="line"/>
    </contour>
  </outline>
</glyph>
<glyph name="_58.center" format="2">
  <advance width="1"/>
  <unicode hex="043A"/>
  
  <outline>
    <component base="cap" xOffset="0" yOffset="210" />
    <component base="cap" xOffset="0" yOffset="789" />
    <contour>
      <point x="0" y="211" type="line"/>
      <point x="0" y="790" type="line"/>
      <point x="1" y="790" type="line"/>
      <point x="1" y="211" type="line"/>
    </contour>
  </outline>
</glyph>
<glyph name="_59.center" format="2">
  <advance width="1"/>
  <unicode hex="043B"/>
  
  <outline>
    <component base="cap" xOffset="0" yOffset="205.000" />
    <component base="cap" xOffset="0" yOffset="794.000" />
    <contour>
      <point x="0.000" y="205.500" type="line"/>
      <point x="0.000" y="794.500" type="line"/>
      <point x="1.000" y="794.500" type="line"/>
      <point x="1.000" y="205.500" type="line"/>
    </contour>
  </outline>
</glyph>
<glyph name="_60.center" format="2">
  <advance width="1"/>
  <unicode hex="043C"/>
  
  <outline>
    <component base="cap" xOffset="0" yOffset="200.000" />
    <component base="cap" xOffset="0" yOffset="799.000" />
    <contour>
      <point x="0.000" y="200.500" type="line"/>
      <point x="0.000" y="799.500" type="line"/>
      <point x="1.000" y="799.500" type="line"/>
      <point x="1.000" y="200.500" type="line"/>
    </contour>
  </outline>
</glyph>
<glyph name="_62.center" format="2">
  <advance width="1"/>
  <unicode hex="043E"/>
  
  <outline>
    <component base="cap" xOffset="0" yOffset="190.000" />
    <component base="cap" xOffset="0" yOffset="809.000" />
    <contour>
      <point x="0.000" y="190.500" type="line"/>
      <point x="0.000" y="809.500" type="line"/>
      <point x="1.000" y="809.500" type="line"/>
      <point x="1.000" y="190.500" type="line"/>
    </contour>
  </outline>
</glyph>
<glyph name="_63.center" format="2">
  <advance width="1"/>
  <unicode hex="043F"/>
  
  <outline>
    <component base="cap" xOffset="0" yOffset="185.000" />
    <component base="cap" xOffset="0" yOffset="814.000" />
    <contour>
      <point x="0.000" y="185.500" type="line"/>
      <point x="0.000" y="814.500" type="line"/>
      <point x="1.000" y="814.500" type="line"/>
      <point x="1.000" y="185.500" type="line"/>
    </contour>
  </outline>
</glyph>
<glyph name="_65.center" format="2">
  <advance width="1"/>
  <unicode hex="0441"/>
  
  <outline>
    <component base="cap" xOffset="0" yOffset="175.000" />
    <component base="cap" xOffset="0" yOffset="824.000" />
    <contour>
      <point x="0.000" y="175.500" type="line"/>
      <point x="0.000" y="824.500" type="line"/>
      <point x="1.000" y="824.500" type="line"/>
      <point x="1.000" y="175.500" type="line"/>
    </contour>
  </outline>
</glyph>
<glyph name="_66.center" format="2">
  <advance width="1"/>
  <unicode hex="0442"/>
  
  <outline>
    <component base="cap" xOffset="0" yOffset="170.000" />
    <component base="cap" xOffset="0" yOffset="829.000" />
    <contour>
      <point x="0.000" y="170.500" type="line"/>
      <point x="0.000" y="829.500" type="line"/>
      <point x="1.000" y="829.500" type="line"/>
      <point x="1.000" y="170.500" type="line"/>
    </contour>
  </outline>
</glyph>
<glyph name="_67.center" format="2">
  <advance width="1"/>
  <unicode hex="0443"/>
  
  <outline>
    <component base="cap" xOffset="0" yOffset="165.000" />
    <component base="cap" xOffset="0" yOffset="834.000" />
    <contour>
      <point x="0.000" y="165.500" type="line"/>
      <point x="0.000" y="834.500" type="line"/>
      <point x="1.000" y="834.500" type="line"/>
      <point x="1.000" y="165.500" type="line"/>
    </contour>
  </outline>
</glyph>
<glyph name="_68.center" format="2">
  <advance width="1"/>
  <unicode hex="0444"/>
  
  <outline>
    <component base="cap" xOffset="0" yOffset="160.000" />
    <component base="cap" xOffset="0" yOffset="839.000" />
    <contour>
      <point x="0.000" y="160.500" type="line"/>
      <point x="0.000" y="839.500" type="line"/>
      <point x="1.000" y="839.500" type="line"/>
      <point x="1.000" y="160.500" type="line"/>
    </contour>
  </outline>
</glyph>
<glyph name="_69.center" format="2">
  <advance width="1"/>
  <unicode hex="0445"/>
  
  <outline>
    <component base="cap" xOffset="0" yOffset="155.000" />
    <component base="cap" xOffset="0" yOffset="844.000" />
    <contour>
      <point x="0.000" y="155.500" type="line"/>
      <point x="0.000" y="844.500" type="line"/>
      <point x="1.000" y="844.500" type="line"/>
      <point x="1.000" y="155.500" type="line"/>
    </contour>
  </outline>
</glyph>
<glyph name="_71.center" format="2">
  <advance width="1"/>
  <unicode hex="0447"/>
  
  <outline>
    <component base="cap" xOffset="0" yOffset="145.000" />
    <component base="cap" xOffset="0" yOffset="854.000" />
    <contour>
      <point x="0.000" y="145.500" type="line"/>
      <point x="0.000" y="854.500" type="line"/>
      <point x="1.000" y="854.500" type="line"/>
      <point x="1.000" y="145.500" type="line"/>
    </contour>
  </outline>
</glyph>
<glyph name="_72.center" format="2">
  <advance width="1"/>
  <unicode hex="0448"/>
  
  <outline>
    <component base="cap" xOffset="0" yOffset="140.000" />
    <component base="cap" xOffset="0" yOffset="859.000" />
    <contour>
      <point x="0.000" y="140.500" type="line"/>
      <point x="0.000" y="859.500" type="line"/>
      <point x="1.000" y="859.500" type="line"/>
      <point x="1.000" y="140.500" type="line"/>
    </contour>
  </outline>
</glyph>
<glyph name="_74.center" format="2">
  <advance width="1"/>
  <unicode hex="044A"/>
  
  <outline>
    <component base="cap" xOffset="0" yOffset="130.000" />
    <component base="cap" xOffset="0" yOffset="869.000" />
    <contour>
      <point x="0.000" y="130.500" type="line"/>
      <point x="0.000" y="869.500" type="line"/>
      <point x="1.000" y="869.500" type="line"/>
      <point x="1.000" y="130.500" type="line"/>
    </contour>
  </outline>
</glyph>
<glyph name="_77.center" format="2">
  <advance width="1"/>
  <unicode hex="044D"/>
  
  <outline>
    <component base="cap" xOffset="0" yOffset="115.000" />
    <component base="cap" xOffset="0" yOffset="884.000" />
    <contour>
      <point x="0.000" y="115.500" type="line"/>
      <point x="0.000" y="884.500" type="line"/>
      <point x="1.000" y="884.500" type="line"/>
      <point x="1.000" y="115.500" type="line"/>
    </contour>
  </outline>
</glyph>
<glyph name="_78.center" format="2">
  <advance width="1"/>
  <unicode hex="044E"/>
  
  <outline>
    <component base="cap" xOffset="0" yOffset="110.000" />
    <component base="cap" xOffset="0" yOffset="889.000" />
    <contour>
      <point x="0.000" y="110.500" type="line"/>
      <point x="0.000" y="889.500" type="line"/>
      <point x="1.000" y="889.500" type="line"/>
      <point x="1.000" y="110.500" type="line"/>
    </contour>
  </outline>
</glyph>
<glyph name="_80.center" format="2">
  <advance width="1"/>
  <unicode hex="0450"/>
  
  <outline>
    <component base="cap" xOffset="0" yOffset="100.000" />
    <component base="cap" xOffset="0" yOffset="899.000" />
    <contour>
      <point x="0.000" y="100.500" type="line"/>
      <point x="0.000" y="899.500" type="line"/>
      <point x="1.000" y="899.500" type="line"/>
      <point x="1.000" y="100.500" type="line"/>
    </contour>
  </outline>
</glyph>
<glyph name="_82.center" format="2">
  <advance width="1"/>
  <unicode hex="0452"/>
  
  <outline>
    <component base="cap" xOffset="0" yOffset="90.000" />
    <component base="cap" xOffset="0" yOffset="909.000" />
    <contour>
      <point x="0.000" y="90.500" type="line"/>
      <point x="0.000" y="909.500" type="line"/>
      <point x="1.000" y="909.500" type="line"/>
      <point x="1.000" y="90.500" type="line"/>
    </contour>
  </outline>
</glyph>
<glyph name="_87.center" format="2">
  <advance width="1"/>
  <unicode hex="0457"/>
  
  <outline>
    <component base="cap" xOffset="0" yOffset="65.000" />
    <component base="cap" xOffset="0" yOffset="934.000" />
    <contour>
      <point x="0.000" y="65.500" type="line"/>
      <point x="0.000" y="934.500" type="line"/>
      <point x="1.000" y="934.500" type="line"/>
      <point x="1.000" y="65.500" type="line"/>
    </contour>
  </outline>
</glyph>
<glyph name="_89.center" format="2">
  <advance width="1"/>
  <unicode hex="0459"/>
  
  <outline>
    <component base="cap" xOffset="0" yOffset="55.000" />
    <component base="cap" xOffset="0" yOffset="944.000" />
    <contour>
      <point x="0.000" y="55.500" type="line"/>
      <point x="0.000" y="944.500" type="line"/>
      <point x="1.000" y="944.500" type="line"/>
      <point x="1.000" y="55.500" type="line"/>
    </contour>
  </outline>
</glyph>
<glyph name="_92.center" format="2">
  <advance width="1"/>
  <unicode hex="045C"/>
  
  <outline>
    <component base="cap" xOffset="0" yOffset="40.000" />
    <component base="cap" xOffset="0" yOffset="959.000" />
    <contour>
      <point x="0.000" y="40.500" type="line"/>
      <point x="0.000" y="959.500" type="line"/>
      <point x="1.000" y="959.500" type="line"/>
      <point x="1.000" y="40.500" type="line"/>
    </contour>
  </outline>
</glyph>
<glyph name="_94.center" format="2">
  <advance width="1"/>
  <unicode hex="045E"/>
  
  <outline>
    <component base="cap" xOffset="0" yOffset="30.000" />
    <component base="cap" xOffset="0" yOffset="969.000" />
    <contour>
      <point x="0.000" y="30.500" type="line"/>
      <point x="0.000" y="969.500" type="line"/>
      <point x="1.000" y="969.500" type="line"/>
      <point x="1.000" y="30.500" type="line"/>
    </contour>
  </outline>
</glyph>
<glyph name="_95.center" format="2">
  <advance width="1"/>
  <unicode hex="045F"/>
  
  <outline>
    <component base="cap" xOffset="0" yOffset="25" />
    <component base="cap" xOffset="0" yOffset="974" />
    <contour>
      <point x="0" y="26" type="line"/>
      <point x="0" y="975" type="line"/>
      <point x="1" y="975" type="line"/>
      <point x="1" y="26" type="line"/>
    </contour>
  </outline>
</glyph>
<glyph name="_98.center" format="2">
  <advance width="1"/>
  <unicode hex="0462"/>
  
  <outline>
    <component base="cap" xOffset="0" yOffset="10.000" />
    <component base="cap" xOffset="0" yOffset="989.000" />
    <contour>
      <point x="0.000" y="10.500" type="line"/>
      <point x="0.000" y="989.500" type="line"/>
      <point x="1.000" y="989.500" type="line"/>
      <point x="1.000" y="10.500" type="line"/>
    </contour>
  </outline>
</glyph>
<glyph name="_99.center" format="2">
  <advance width="1"/>
  <unicode hex="0463"/>
  
  <outline>
    <component base="cap" xOffset="0" yOffset="5.000" />
    <component base="cap" xOffset="0" yOffset="994.000" />
    <contour>
      <point x="0.000" y="5.500" type="line"/>
      <point x="0.000" y="994.500" type="line"/>
      <point x="1.000" y="994.500" type="line"/>
      <point x="1.000" y="5.500" type="line"/>
    </contour>
  </outline>
</glyph>
<glyph name="_105.center" format="2">
  <advance width="1"/>
  <unicode hex="0469"/>
  
  <outline>
    <component base="cap" xOffset="0" yOffset="-25.000" />
    <component base="cap" xOffset="0" yOffset="1024.000" />
    <contour>
      <point x="0.000" y="-24.500" type="line"/>
      <point x="0.000" y="1024.500" type="line"/>
      <point x="1.000" y="1024.500" type="line"/>
      <point x="1.000" y="-24.500" type="line"/>
    </contour>
  </outline>
</glyph>
<glyph name="_106.center" format="2">
  <advance width="1"/>
  <unicode hex="046A"/>
  
  <outline>
    <component base="cap" xOffset="0" yOffset="-30.000" />
    <component base="cap" xOffset="0" yOffset="1029.000" />
    <contour>
      <point x="0.000" y="-29.500" type="line"/>
      <point x="0.000" y="1029.500" type="line"/>
      <point x="1.000" y="1029.500" type="line"/>
      <point x="1.000" y="-29.500" type="line"/>
    </contour>
  </outline>
</glyph>
<glyph name="_39.clip.center" format="2">
  <advance width="1"/>
  
  <outline>
    <contour>
        <point x="0.000" y="607.250"/>

        <point x="87.750" y="695.000"/>
        <point x="195.000" y="695.000" type="curve" smooth="yes"/>
        <point x="-194.000" y="695.000" type="line"/>
        <point x="-86.750" y="695.000"/>

        <point x="1.000" y="607.250"/>
        <point x="1.000" y="500.000" type="curve" smooth="yes"/>
        <point x="1.000" y="500.000" type="line"/>
        <point x="1.000" y="392.750"/>

        <point x="-86.750" y="305.000"/>
        <point x="-194.000" y="305.000" type="curve" smooth="yes"/>
        <point x="195.000" y="305.000" type="line"/>
        <point x="87.750" y="305.000"/>

        <point x="0.000" y="392.750"/>
        <point x="0.000" y="500.000" type="curve" smooth="yes"/>
        <point x="0.000" y="500.000" type="line"/>
    </contour>
  </outline>
</glyph>
<glyph name="_42.clip.center" format="2">
  <advance width="1"/>
  
  <outline>
    <contour>
        <point x="0.000" y="615.500"/>

        <point x="94.500" y="710.000"/>
        <point x="210.000" y="710.000" type="curve" smooth="yes"/>
        <point x="-209.000" y="710.000" type="line"/>
        <point x="-93.500" y="710.000"/>

        <point x="1.000" y="615.500"/>
        <point x="1.000" y="500.000" type="curve" smooth="yes"/>
        <point x="1.000" y="500.000" type="line"/>
        <point x="1.000" y="384.500"/>

        <point x="-93.500" y="290.000"/>
        <point x="-209.000" y="290.000" type="curve" smooth="yes"/>
        <point x="210.000" y="290.000" type="line"/>
        <point x="94.500" y="290.000"/>

        <point x="0.000" y="384.500"/>
        <point x="0.000" y="500.000" type="curve" smooth="yes"/>
        <point x="0.000" y="500.000" type="line"/>
    </contour>
  </outline>
</glyph>
<glyph name="_51.clip" format="2">
  <advance width="1"/>
  
  <outline>
    <contour>
        <point x="0.000" y="395.250"/>

        <point x="114.750" y="510.000"/>
        <point x="255.000" y="510.000" type="curve" smooth="yes"/>
        <point x="-254.000" y="510.000" type="line"/>
        <point x="-113.750" y="510.000"/>

        <point x="1.000" y="395.250"/>
        <point x="1.000" y="255.000" type="curve" smooth="yes"/>
        <point x="1.000" y="255.000" type="line"/>
        <point x="1.000" y="114.750"/>

        <point x="-113.750" y="0.000"/>
        <point x="-254.000" y="0.000" type="curve" smooth="yes"/>
        <point x="255.000" y="0.000" type="line"/>
        <point x="114.750" y="0.000"/>

        <point x="0.000" y="114.750"/>
        <point x="0.000" y="255.000" type="curve" smooth="yes"/>
        <point x="0.000" y="255.000" type="line"/>
    </contour>
  </outline>
</glyph>
<glyph name="_64.clip" format="2">
  <advance width="1"/>
  
  <outline>
    <contour>
        <point x="0.000" y="496.000"/>

        <point x="144.000" y="640.000"/>
        <point x="320.000" y="640.000" type="curve" smooth="yes"/>
        <point x="-319.000" y="640.000" type="line"/>
        <point x="-143.000" y="640.000"/>

        <point x="1.000" y="496.000"/>
        <point x="1.000" y="320.000" type="curve" smooth="yes"/>
        <point x="1.000" y="320.000" type="line"/>
        <point x="1.000" y="144.000"/>

        <point x="-143.000" y="0.000"/>
        <point x="-319.000" y="0.000" type="curve" smooth="yes"/>
        <point x="320.000" y="0.000" type="line"/>
        <point x="144.000" y="0.000"/>

        <point x="0.000" y="144.000"/>
        <point x="0.000" y="320.000" type="curve" smooth="yes"/>
        <point x="0.000" y="320.000" type="line"/>
    </contour>
  </outline>
</glyph>
<glyph name="_79.clip.center" format="2">
  <advance width="1"/>
  
  <outline>
    <contour>
        <point x="0.000" y="717.250"/>

        <point x="177.750" y="895.000"/>
        <point x="395.000" y="895.000" type="curve" smooth="yes"/>
        <point x="-394.000" y="895.000" type="line"/>
        <point x="-176.750" y="895.000"/>

        <point x="1.000" y="717.250"/>
        <point x="1.000" y="500.000" type="curve" smooth="yes"/>
        <point x="1.000" y="500.000" type="line"/>
        <point x="1.000" y="282.750"/>

        <point x="-176.750" y="105.000"/>
        <point x="-394.000" y="105.000" type="curve" smooth="yes"/>
        <point x="395.000" y="105.000" type="line"/>
        <point x="177.750" y="105.000"/>

        <point x="0.000" y="282.750"/>
        <point x="0.000" y="500.000" type="curve" smooth="yes"/>
        <point x="0.000" y="500.000" type="line"/>
    </contour>
  </outline>
</glyph>
<glyph name="_83.clip.center" format="2">
  <advance width="1"/>
  
  <outline>
    <contour>
        <point x="0.000" y="728.250"/>

        <point x="186.750" y="915.000"/>
        <point x="415.000" y="915.000" type="curve" smooth="yes"/>
        <point x="-414.000" y="915.000" type="line"/>
        <point x="-185.750" y="915.000"/>

        <point x="1.000" y="728.250"/>
        <point x="1.000" y="500.000" type="curve" smooth="yes"/>
        <point x="1.000" y="500.000" type="line"/>
        <point x="1.000" y="271.750"/>

        <point x="-185.750" y="85.000"/>
        <point x="-414.000" y="85.000" type="curve" smooth="yes"/>
        <point x="415.000" y="85.000" type="line"/>
        <point x="186.750" y="85.000"/>

        <point x="0.000" y="271.750"/>
        <point x="0.000" y="500.000" type="curve" smooth="yes"/>
        <point x="0.000" y="500.000" type="line"/>
    </contour>
  </outline>
</glyph>
<glyph name="_86.clip.center" format="2">
  <advance width="1"/>
  
  <outline>
    <contour>
        <point x="0.000" y="736.500"/>

        <point x="193.500" y="930.000"/>
        <point x="430.000" y="930.000" type="curve" smooth="yes"/>
        <point x="-429.000" y="930.000" type="line"/>
        <point x="-192.500" y="930.000"/>

        <point x="1.000" y="736.500"/>
        <point x="1.000" y="500.000" type="curve" smooth="yes"/>
        <point x="1.000" y="500.000" type="line"/>
        <point x="1.000" y="263.500"/>

        <point x="-192.500" y="70.000"/>
        <point x="-429.000" y="70.000" type="curve" smooth="yes"/>
        <point x="430.000" y="70.000" type="line"/>
        <point x="193.500" y="70.000"/>

        <point x="0.000" y="263.500"/>
        <point x="0.000" y="500.000" type="curve" smooth="yes"/>
        <point x="0.000" y="500.000" type="line"/>
    </contour>
  </outline>
</glyph>
<glyph name="_87.clip" format="2">
  <advance width="1"/>
  
  <outline>
    <contour>
        <point x="0.000" y="674.250"/>

        <point x="195.750" y="870.000"/>
        <point x="435.000" y="870.000" type="curve" smooth="yes"/>
        <point x="-434.000" y="870.000" type="line"/>
        <point x="-194.750" y="870.000"/>

        <point x="1.000" y="674.250"/>
        <point x="1.000" y="435.000" type="curve" smooth="yes"/>
        <point x="1.000" y="435.000" type="line"/>
        <point x="1.000" y="195.750"/>

        <point x="-194.750" y="0.000"/>
        <point x="-434.000" y="0.000" type="curve" smooth="yes"/>
        <point x="435.000" y="0.000" type="line"/>
        <point x="195.750" y="0.000"/>

        <point x="0.000" y="195.750"/>
        <point x="0.000" y="435.000" type="curve" smooth="yes"/>
        <point x="0.000" y="435.000" type="line"/>
    </contour>
  </outline>
</glyph>
